<?xml version="1.0" encoding="UTF-8"?>
<svg width="99px" height="34px" viewBox="0 0 99 34" version="1.1" xmlns="http://www.w3.org/2000/svg" xmlns:xlink="http://www.w3.org/1999/xlink">
    <!-- Generator: sketchtool 51.1 (57501) - http://www.bohemiancoding.com/sketch -->
    <title>7A67CE09-618F-4688-A4D6-7E284A11D5AA</title>
    <desc>Created with sketchtool.</desc>
    <defs></defs>
    <g id="Web" stroke="none" stroke-width="1" fill="none" fill-rule="evenodd">
        <g id="Mobile-web" transform="translate(-12.000000, -17.000000)">
            <g id="Logo" transform="translate(15.000000, 19.000000)">
                <path d="M33,8 L37.5068446,8 C38.3476319,8 39.1884066,8.12658101 40.0291939,8.37974684 C40.8699811,8.63291266 41.6303877,9.03164285 42.3104362,9.57594937 C42.9904847,10.1202559 43.5406976,10.8164515 43.9610912,11.664557 C44.3814849,12.5126625 44.5916785,13.5316396 44.5916785,14.721519 C44.5916785,15.8734235 44.3814849,16.870249 43.9610912,17.7120253 C43.5406976,18.5538017 42.9904847,19.2499972 42.3104362,19.8006329 C41.6303877,20.3512686 40.8699811,20.7626569 40.0291939,21.0348101 C39.1884066,21.3069634 38.3476319,21.443038 37.5068446,21.443038 L33,21.443038 L33,8 Z M34.8361219,19.7911392 L37.1359109,19.7911392 C37.9272401,19.7911392 38.6598269,19.6772163 39.3336931,19.4493671 C40.0075594,19.2215178 40.5886831,18.8924072 41.0770816,18.4620253 C41.5654801,18.0316434 41.9456833,17.5000032 42.2177028,16.8670886 C42.4897222,16.2341741 42.6257298,15.5189913 42.6257298,14.721519 C42.6257298,13.8860718 42.4897222,13.1519019 42.2177028,12.5189873 C41.9456833,11.8860728 41.5654801,11.3575971 41.0770816,10.9335443 C40.5886831,10.5094916 40.0075594,10.18671 39.3336931,9.96518987 C38.6598269,9.74366978 37.9272401,9.63291139 37.1359109,9.63291139 L34.8361219,9.63291139 L34.8361219,19.7911392 Z M52.1061773,15.6139241 C52.1061773,14.9430346 51.908348,14.4462041 51.5126834,14.1234177 C51.1170188,13.8006313 50.5915346,13.6392405 49.9362151,13.6392405 C49.4416343,13.6392405 48.9748808,13.7373408 48.5359403,13.9335443 C48.0969999,14.1297478 47.729161,14.3797453 47.4324125,14.6835443 L46.5050783,13.5443038 C46.9378364,13.1265802 47.4664117,12.7974696 48.0908199,12.556962 C48.7152281,12.3164545 49.3859932,12.1962025 50.1031353,12.1962025 C50.7337257,12.1962025 51.2808475,12.2879738 51.744517,12.471519 C52.2081864,12.6550642 52.5883897,12.9050617 52.8851381,13.221519 C53.1818866,13.5379763 53.4044446,13.9113903 53.5528188,14.3417722 C53.701193,14.7721541 53.775379,15.2341747 53.775379,15.7278481 L53.775379,19.6582278 C53.775379,19.9620268 53.7846523,20.2816439 53.8031991,20.6170886 C53.8217458,20.9525333 53.8557478,21.227847 53.9052058,21.443038 L52.3287375,21.443038 C52.2298214,21.0126561 52.1803641,20.5822806 52.1803641,20.1518987 L52.124724,20.1518987 C51.8032465,20.6329138 51.3983146,21.0063278 50.9099161,21.2721519 C50.4215176,21.537976 49.843485,21.6708861 49.175801,21.6708861 C48.8295945,21.6708861 48.4679377,21.6234182 48.0908199,21.528481 C47.7137021,21.4335438 47.3705918,21.2784821 47.0614788,21.0632911 C46.7523659,20.8481002 46.4958059,20.5632929 46.2917914,20.2088608 C46.0877768,19.8544286 45.9857711,19.4177241 45.9857711,18.8987342 C45.9857711,18.2151865 46.1650539,17.6740526 46.5236249,17.2753165 C46.882196,16.8765803 47.3520407,16.5727859 47.9331731,16.3639241 C48.5143054,16.1550622 49.1696151,16.0189877 49.8991217,15.9556962 C50.6286283,15.8924047 51.3643062,15.8607595 52.1061773,15.8607595 L52.1061773,15.6139241 Z M51.6796036,17.1518987 C51.2468454,17.1518987 50.7986383,17.1708859 50.3349688,17.2088608 C49.8712994,17.2468356 49.450912,17.3227842 49.0737942,17.4367089 C48.6966764,17.5506335 48.384477,17.7215178 48.1371866,17.9493671 C47.8898962,18.1772163 47.7662529,18.4810108 47.7662529,18.8607595 C47.7662529,19.1265836 47.8188013,19.3481004 47.9238997,19.5253165 C48.0289981,19.7025325 48.1680969,19.8481007 48.3412001,19.9620253 C48.5143034,20.0759499 48.7059506,20.1550631 48.9161474,20.1993671 C49.1263442,20.2436711 49.34272,20.2658228 49.5652814,20.2658228 C50.3813396,20.2658228 51.0088296,20.0158253 51.44777,19.5158228 C51.8867104,19.0158203 52.1061773,18.3860797 52.1061773,17.6265823 L52.1061773,17.1518987 L51.6796036,17.1518987 Z M58.0442078,26 L56.3008194,26 L56.3008194,12.443038 L58.0071145,12.443038 L58.0071145,13.8481013 L58.0627545,13.8481013 C58.3471385,13.3670862 58.7644347,12.9715205 59.3146558,12.6613924 C59.8648769,12.3512643 60.5047312,12.1962025 61.2342378,12.1962025 C61.8895573,12.1962025 62.4861364,12.3164545 63.0239929,12.556962 C63.5618495,12.7974696 64.025512,13.1329092 64.4149944,13.5632911 C64.8044767,13.993673 65.1043118,14.4968326 65.3145086,15.0727848 C65.5247054,15.6487371 65.6298023,16.2658195 65.6298023,16.9240506 C65.6298023,17.5822818 65.5247054,18.2025287 65.3145086,18.7848101 C65.1043118,19.3670915 64.8075678,19.8734156 64.4242677,20.3037975 C64.0409676,20.7341794 63.5773051,21.0727836 63.0332663,21.3196203 C62.4892274,21.5664569 61.8771929,21.6898734 61.1971444,21.6898734 C60.5665539,21.6898734 59.9730659,21.5506343 59.4166626,21.2721519 C58.8602592,20.9936695 58.4213254,20.6012684 58.0998479,20.0949367 L58.0442078,20.0949367 L58.0442078,26 Z M63.8307738,16.9240506 C63.8307738,16.506327 63.7689521,16.1012678 63.6453069,15.7088608 C63.5216617,15.3164537 63.3361967,14.9683559 63.0889063,14.664557 C62.841616,14.360758 62.5355987,14.1202541 62.1708454,13.943038 C61.8060921,13.7658219 61.3826137,13.6772152 60.9003974,13.6772152 C60.4552747,13.6772152 60.0503428,13.7658219 59.6855895,13.943038 C59.3208362,14.1202541 59.0086368,14.360758 58.7489819,14.664557 C58.489327,14.9683559 58.2884066,15.3164537 58.1462146,15.7088608 C58.0040226,16.1012678 57.9329277,16.5126561 57.9329277,16.943038 C57.9329277,17.3734199 58.0040226,17.7848082 58.1462146,18.1772152 C58.2884066,18.5696222 58.489327,18.9145555 58.7489819,19.2120253 C59.0086368,19.5094952 59.3208362,19.7468346 59.6855895,19.9240506 C60.0503428,20.1012667 60.4552747,20.1898734 60.9003974,20.1898734 C61.3826137,20.1898734 61.8060921,20.0981022 62.1708454,19.914557 C62.5355987,19.7310117 62.841616,19.4873433 63.0889063,19.1835443 C63.3361967,18.8797453 63.5216617,18.5316475 63.6453069,18.1392405 C63.7689521,17.7468335 63.8307738,17.3417742 63.8307738,16.9240506 Z M69.4164173,26 L67.6730288,26 L67.6730288,12.443038 L69.3793239,12.443038 L69.3793239,13.8481013 L69.4349639,13.8481013 C69.7193479,13.3670862 70.1366441,12.9715205 70.6868652,12.6613924 C71.2370863,12.3512643 71.8769406,12.1962025 72.6064472,12.1962025 C73.2617667,12.1962025 73.8583458,12.3164545 74.3962023,12.556962 C74.9340589,12.7974696 75.3977214,13.1329092 75.7872038,13.5632911 C76.1766861,13.993673 76.4765212,14.4968326 76.686718,15.0727848 C76.8969148,15.6487371 77.0020117,16.2658195 77.0020117,16.9240506 C77.0020117,17.5822818 76.8969148,18.2025287 76.686718,18.7848101 C76.4765212,19.3670915 76.1797772,19.8734156 75.7964771,20.3037975 C75.413177,20.7341794 74.9495145,21.0727836 74.4054757,21.3196203 C73.8614369,21.5664569 73.2494024,21.6898734 72.5693538,21.6898734 C71.9387633,21.6898734 71.3452753,21.5506343 70.788872,21.2721519 C70.2324686,20.9936695 69.7935348,20.6012684 69.4720573,20.0949367 L69.4164173,20.0949367 L69.4164173,26 Z M75.2029832,16.9240506 C75.2029832,16.506327 75.1411615,16.1012678 75.0175163,15.7088608 C74.8938711,15.3164537 74.7084061,14.9683559 74.4611157,14.664557 C74.2138254,14.360758 73.9078081,14.1202541 73.5430548,13.943038 C73.1783015,13.7658219 72.7548231,13.6772152 72.2726068,13.6772152 C71.8274842,13.6772152 71.4225522,13.7658219 71.0577989,13.943038 C70.6930456,14.1202541 70.3808462,14.360758 70.1211913,14.664557 C69.8615364,14.9683559 69.660616,15.3164537 69.518424,15.7088608 C69.3762321,16.1012678 69.3051371,16.5126561 69.3051371,16.943038 C69.3051371,17.3734199 69.3762321,17.7848082 69.518424,18.1772152 C69.660616,18.5696222 69.8615364,18.9145555 70.1211913,19.2120253 C70.3808462,19.5094952 70.6930456,19.7468346 71.0577989,19.9240506 C71.4225522,20.1012667 71.8274842,20.1898734 72.2726068,20.1898734 C72.7548231,20.1898734 73.1783015,20.0981022 73.5430548,19.914557 C73.9078081,19.7310117 74.2138254,19.4873433 74.4611157,19.1835443 C74.7084061,18.8797453 74.8938711,18.5316475 75.0175163,18.1392405 C75.1411615,17.7468335 75.2029832,17.3417742 75.2029832,16.9240506 Z M87.9476473,16.9240506 C87.9476473,17.6202566 87.8270951,18.2594908 87.5859869,18.8417722 C87.3448788,19.4240535 87.0110418,19.9272131 86.5844659,20.3512658 C86.15789,20.7753186 85.6540434,21.1044292 85.072911,21.3386076 C84.4917787,21.572786 83.8673798,21.6898734 83.1996958,21.6898734 C82.5320118,21.6898734 81.9076129,21.572786 81.3264805,21.3386076 C80.7453482,21.1044292 80.2445927,20.7753186 79.824199,20.3512658 C79.4038054,19.9272131 79.0730594,19.4240535 78.8319513,18.8417722 C78.5908432,18.2594908 78.470291,17.6202566 78.470291,16.9240506 C78.470291,16.2278446 78.5908432,15.591775 78.8319513,15.0158228 C79.0730594,14.4398705 79.4038054,13.9430401 79.824199,13.5253165 C80.2445927,13.1075928 80.7453482,12.7816467 81.3264805,12.5474684 C81.9076129,12.31329 82.5320118,12.1962025 83.1996958,12.1962025 C83.8673798,12.1962025 84.4917787,12.31329 85.072911,12.5474684 C85.6540434,12.7816467 86.15789,13.1075928 86.5844659,13.5253165 C87.0110418,13.9430401 87.3448788,14.4398705 87.5859869,15.0158228 C87.8270951,15.591775 87.9476473,16.2278446 87.9476473,16.9240506 Z M86.1300721,16.9240506 C86.1300721,16.4936687 86.0651594,16.0822804 85.9353319,15.6898734 C85.8055045,15.2974664 85.6169484,14.9525331 85.369658,14.6550633 C85.1223676,14.3575934 84.8163504,14.1202541 84.4515971,13.943038 C84.0868438,13.7658219 83.6695475,13.6772152 83.1996958,13.6772152 C82.7298441,13.6772152 82.3125478,13.7658219 81.9477945,13.943038 C81.5830412,14.1202541 81.277024,14.3575934 81.0297336,14.6550633 C80.7824432,14.9525331 80.5938871,15.2974664 80.4640597,15.6898734 C80.3342322,16.0822804 80.2693195,16.4936687 80.2693195,16.9240506 C80.2693195,17.3544325 80.3342322,17.7658208 80.4640597,18.1582278 C80.5938871,18.5506349 80.7824432,18.8987327 81.0297336,19.2025316 C81.277024,19.5063306 81.5830412,19.7468346 81.9477945,19.9240506 C82.3125478,20.1012667 82.7298441,20.1898734 83.1996958,20.1898734 C83.6695475,20.1898734 84.0868438,20.1012667 84.4515971,19.9240506 C84.8163504,19.7468346 85.1223676,19.5063306 85.369658,19.2025316 C85.6169484,18.8987327 85.8055045,18.5506349 85.9353319,18.1582278 C86.0651594,17.7658208 86.1300721,17.3544325 86.1300721,16.9240506 Z M94.7202787,14.721519 C94.5224464,14.3924034 94.2442489,14.1234188 93.8856778,13.914557 C93.5271068,13.7056952 93.125266,13.6012658 92.6801433,13.6012658 C92.482311,13.6012658 92.2844816,13.6234175 92.0866493,13.6677215 C91.888817,13.7120255 91.7126253,13.7816451 91.5580688,13.8765823 C91.4035123,13.9715195 91.279869,14.0917714 91.1871351,14.2373418 C91.0944012,14.3829121 91.0480349,14.5632901 91.0480349,14.778481 C91.0480349,15.1582297 91.2149534,15.4398725 91.5487954,15.6234177 C91.8826375,15.8069629 92.383393,15.9746828 93.051077,16.1265823 C93.4714706,16.2278486 93.8609471,16.3481006 94.2195182,16.4873418 C94.5780892,16.626583 94.8902886,16.8006319 95.1561258,17.0094937 C95.421963,17.2183555 95.6290655,17.468353 95.7774398,17.7594937 C95.925814,18.0506344 96,18.3924031 96,18.7848101 C96,19.3164584 95.9010853,19.7658209 95.703253,20.1329114 C95.5054207,20.5000018 95.2426786,20.8006317 94.9150189,21.0348101 C94.5873591,21.2689885 94.2133381,21.4367084 93.7929444,21.5379747 C93.3725508,21.639241 92.9397991,21.6898734 92.4946764,21.6898734 C91.8269924,21.6898734 91.1747738,21.5569634 90.5380011,21.2911392 C89.9012284,21.0253151 89.3726531,20.6202559 88.9522595,20.0759494 L90.1948874,18.9936709 C90.4298133,19.348103 90.754377,19.6455684 91.1685884,19.8860759 C91.5827998,20.1265835 92.037189,20.2468354 92.5317698,20.2468354 C92.7543311,20.2468354 92.9676159,20.2246838 93.1716304,20.1803797 C93.375645,20.1360757 93.56111,20.0632916 93.728031,19.9620253 C93.894952,19.860759 94.0278686,19.7278489 94.1267848,19.5632911 C94.2257009,19.3987334 94.2751582,19.1898747 94.2751582,18.9367089 C94.2751582,18.5189853 94.08042,18.2088618 93.6909376,18.0063291 C93.3014553,17.8037965 92.7296049,17.6139249 91.9753692,17.4367089 C91.6786208,17.3607591 91.3787857,17.2689879 91.075855,17.1613924 C90.7729242,17.0537969 90.4978178,16.9050642 90.2505275,16.7151899 C90.0032371,16.5253155 89.8023167,16.2879761 89.6477602,16.0031646 C89.4932037,15.718353 89.4159266,15.3670907 89.4159266,14.9493671 C89.4159266,14.468352 89.5117502,14.0537992 89.7034002,13.7056962 C89.8950503,13.3575932 90.145428,13.0727859 90.454541,12.8512658 C90.763654,12.6297457 91.1160375,12.4651904 91.5117021,12.3575949 C91.9073667,12.2499995 92.3153897,12.1962025 92.7357833,12.1962025 C93.3663738,12.1962025 93.9753172,12.3227835 94.5626319,12.5759494 C95.1499465,12.8291152 95.6043358,13.1962001 95.9258133,13.6772152 L94.7202787,14.721519 Z" id="Dappos" fill="#000000"></path>
                <path d="M17.7636708,8.24951435 L4.26199143,21.7828621 L4.22975246,21.7828621 L17.7636708,8.24951435 Z M22,4.00172674 L17.7636708,8.24951435 C17.87122,8.33149147 17.9549123,8.41567019 18.0151347,8.50205051 C20.4825763,10.9583855 21.7161681,13.9261386 21.7161681,17.4055687 C21.7161681,20.8849989 20.4825763,23.852752 18.0151347,26.309087 C15.5692288,28.7696957 12.6227162,30 9.17520999,30 C5.71493719,30 2.75965557,28.7696957 0.309494083,26.309087 C0.206329388,26.2054824 0.103164694,26.1018778 0,25.9982733 L4.22975246,21.7828621 C4.1481234,21.6964818 4.06649433,21.6015541 3.98473631,21.4979495 C1.53457483,19.0416145 0.309494083,16.0738614 0.309494083,12.5944313 C0.309494083,9.11500108 1.53457483,6.14504641 3.98473631,3.68443773 C6.43064226,1.22810274 9.38592388,0 12.8504522,0 C16.2937029,0 19.2488555,1.22810274 21.7161681,3.68443773 C21.8020527,3.79231599 21.8967063,3.89812217 22,4.00172674 Z" id="Stroke-1" stroke="#225CFF" stroke-width="3"></path>
            </g>
        </g>
    </g>
</svg>