<svg xmlns="http://www.w3.org/2000/svg" width="23" height="29" viewBox="0 0 23 29">
    <path fill="none" fill-rule="evenodd" stroke="#225CFF" stroke-width="2.5" d="M16.866 8.875l-11.3 11.277H5.54L16.866 8.875zm3.546-3.54l-3.546 3.54c.09.068.16.138.21.21 2.066 2.047 3.098 4.52 3.098 7.42 0 2.9-1.032 5.372-3.097 7.42C15.03 25.974 12.564 27 9.679 27c-2.896 0-5.37-1.025-7.42-3.076L2 23.665l3.54-3.513a3.527 3.527 0 0 1-.205-.237c-2.05-2.047-3.076-4.52-3.076-7.42 0-2.9 1.025-5.374 3.076-7.425C7.382 3.023 9.855 2 12.755 2c2.881 0 5.354 1.023 7.419 3.07.072.09.151.178.238.265z"/>
</svg>
